<?xml version="1.0" encoding="UTF-8" standalone="no"?>
<svg
   version="1.1"
   viewBox="0 0 162.23064 141.35315"
   xml:space="preserve"
   id="svg38"
   sodipodi:docname="cu-blue-logo.svg"
   width="162.23064"
   height="141.35315"
   xmlns:inkscape="http://www.inkscape.org/namespaces/inkscape"
   xmlns:sodipodi="http://sodipodi.sourceforge.net/DTD/sodipodi-0.dtd"
   xmlns="http://www.w3.org/2000/svg"
   xmlns:svg="http://www.w3.org/2000/svg"><defs
     id="defs38" /><sodipodi:namedview
     id="namedview38"
     pagecolor="#ffffff"
     bordercolor="#000000"
     borderopacity="0.25"
     inkscape:showpageshadow="2"
     inkscape:pageopacity="0.0"
     inkscape:pagecheckerboard="0"
     inkscape:deskcolor="#d1d1d1" /><path
     d="m 81.811796,122.38315 c 0,-0.002 -61.81,-0.002 -61.81,-0.002 0.314,-5.577 -1.429,-12.059 -3.411,-16.881 -6.281,-15.281001 -19.2139995,-29.116001 -16.11999953,-47.116001 1.71900003,-10 9.79499953,-16.964 19.67699953,-17.756 17.665,-1.421 32.906,8.027 50.039,11.053 1.37,0.241 3.215,-2.678 4.879,-4.344 -7.946,-5.989 -6.865,-17.729 2.333,-22.799 0.634,-0.728 0.402,-7.489 0.04,-7.793 -0.749,-0.625 -6.617,0.499 -7.45,-0.225 -0.831,-0.725 -0.668,-7.7659997 -0.134,-8.4409997 0.534,-0.673 7.148,0.049 7.52,-0.403 0.372,-0.455 -0.187,-6.78899997 0.438,-7.28799997 0.625,-0.499 3.999,-0.374 3.999,-0.374 h -1.39 c 0,0 3.368,-0.126 3.994,0.374 0.623,0.5 0.066,6.83299997 0.441,7.28799997 0.373,0.452 6.986,-0.27 7.519,0.403 0.533,0.676 0.7,7.7169997 -0.133,8.4409997 -0.832,0.723 -6.7,-0.4 -7.449,0.225 -0.365,0.304 -0.595,7.065 0.038,7.793 9.201,5.069 10.281,16.81 2.333,22.799 1.664,1.666 3.506,4.584 4.879,4.344 17.135004,-3.026 32.374004,-12.475 50.036004,-11.053 9.885,0.792 17.962,7.756 19.68,17.756 3.094,18 -9.838,31.834 -16.116,47.116001 -1.984,4.822 -3.728,11.304 -3.414,16.881 0,0 -61.808004,0 -61.808004,0.002 M 114.6778,85.107149 c 0,0 7.074,-1.061 7.59,-0.049 0.518,1.012 -2.389,6.983 -1.893,8 0.497,1.019 9.866,-0.892 10.03,0.162 0.166,1.055 -0.539,6.313 -1.435,7.090001 -0.899,0.779 -9.644,0.833 -9.644,0.833 -1.822,1.386 -2.296,4.204 -2.307,7.09 -0.013,3.659 2.834,5.55 7.377,4.281 8.469,-2.367 18.964,-20.739001 25.193,-33.456001 4.58,-9.351 7.342,-24.647 -4.676,-29.229 -7.329,-2.793 -15.017,-1.21 -22.898,1.128 -8.259,2.452 -19.154,5.77 -25.574004,9.756 -1.575,0.977 1.875,0.198 -3.822,12.824 -2.647,5.874 -5.306,18.383 -4.196,24.7 1.586,9.036001 6.606,14.776001 10.784,14.802001 2.740004,0.012 4.939004,-1.023 6.936004,-2.771 2.75,-2.408 4.996,-6.367 4.275,-8.708 -0.61,-0.786 -8.022,0.343 -8.549,-0.394 -0.525,-0.737 0.901,-6.507001 1.743,-7.255001 0.835,-0.745 7.526,0.25 8.422,-0.483 0.896,-0.727 1.725,-7.883 2.644,-8.321 m -67.124004,0 c 0.917,0.438 1.746,7.594 2.644,8.322 0.896,0.732 7.584,-0.262 8.423,0.483 0.839,0.748 2.267,6.519001 1.741,7.255001 -0.528,0.736 -7.939,-0.392 -8.55,0.394 -0.719,2.341 1.524,6.301 4.275,8.708 1.999,1.748 4.195,2.783 6.937,2.771 4.177,-0.026 9.197,-5.767 10.785,-14.802001 1.108,-6.317 -1.549,-18.826 -4.199,-24.7 -5.694,-12.626 -2.245,-11.848 -3.819,-12.824 -6.422,-3.987 -17.315,-7.304 -25.574,-9.756 -7.882,-2.338 -15.57,-3.921 -22.897,-1.128 -12.0199995,4.582 -9.2559995,19.877 -4.68,29.229 6.231,12.716 16.728,31.088001 25.197,33.456001 4.542,1.269 7.389,-0.622 7.375,-4.281 -0.009,-2.886 -0.485,-5.704 -2.305,-7.09 0,0 -8.747,-0.055 -9.645,-0.833 -0.897,-0.777001 -1.6,-6.035001 -1.437,-7.090001 0.165,-1.054 9.537,0.857 10.031,-0.162 0.498,-1.018 -2.409,-6.988 -1.891,-8 0.513,-1.012 7.589,0.048 7.589,0.048"
     fill="#093552"
     id="path37"
     style="fill:#245cae;fill-opacity:1" /><polyline
     points="82.595 131.51 19.411 131.51 19.411 142.12 82.595 142.12"
     fill="#093552"
     id="polyline37"
     style="fill:#245cae;fill-opacity:1"
     transform="translate(-0.78320353,-0.76685067)" /><polyline
     points="81.205 131.51 144.39 131.51 144.39 142.12 81.205 142.12"
     fill="#093552"
     id="polyline38"
     style="fill:#245cae;fill-opacity:1"
     transform="translate(-0.78320353,-0.76685067)" /></svg>
