<?xml version="1.0" encoding="UTF-8" standalone="no"?>
<svg
   xmlns:dc="http://purl.org/dc/elements/1.1/"
   xmlns:cc="http://creativecommons.org/ns#"
   xmlns:rdf="http://www.w3.org/1999/02/22-rdf-syntax-ns#"
   xmlns:svg="http://www.w3.org/2000/svg"
   xmlns="http://www.w3.org/2000/svg"
   xmlns:xlink="http://www.w3.org/1999/xlink"
   viewBox="0 0 1184 676.57225"
   height="676.57227"
   width="1184"
   version="1.1"
   id="svg2">
  <title
     id="title4219">DIPC logo</title>
  <metadata
     id="metadata8">
    <rdf:RDF>
      <cc:Work
         rdf:about="">
        <dc:format>image/svg+xml</dc:format>
        <dc:type
           rdf:resource="http://purl.org/dc/dcmitype/StillImage" />
        <dc:title>DIPC logo</dc:title>
        <dc:date>09-15-2016</dc:date>
        <dc:creator>
          <cc:Agent>
            <dc:title>Vitaly Golovach</dc:title>
          </cc:Agent>
        </dc:creator>
        <dc:rights>
          <cc:Agent>
            <dc:title>Everybody is free to use, distribute, and modify this drawing</dc:title>
          </cc:Agent>
        </dc:rights>
        <dc:subject>
          <rdf:Bag>
            <rdf:li>DIPC</rdf:li>
            <rdf:li>logo</rdf:li>
            <rdf:li>physics</rdf:li>
            <rdf:li>Donostia</rdf:li>
          </rdf:Bag>
        </dc:subject>
        <dc:language />
        <dc:description>Logo of the Donostia International Physics Center (DIPC)</dc:description>
        <dc:contributor>
          <cc:Agent>
            <dc:title />
          </cc:Agent>
        </dc:contributor>
        <dc:identifier>logo</dc:identifier>
        <dc:publisher>
          <cc:Agent>
            <dc:title></dc:title>
          </cc:Agent>
        </dc:publisher>
      </cc:Work>
    </rdf:RDF>
  </metadata>
  <defs
     id="defs6" />
  <path
     id="path4198"
     d="m 298,128 c 41.33333,0 82.66667,0 124,0 0,-41.333333 0,-82.666667 0,-124 -41.33333,0 -82.66667,0 -124,0 0,41.333333 0,82.666667 0,124 z"
     style="opacity:1;fill:#0395de;fill-opacity:1;stroke:#0395de;stroke-width:8;stroke-linecap:round;stroke-linejoin:round;stroke-miterlimit:4;stroke-dasharray:none;stroke-opacity:1" />
  <path
     id="path4196"
     d="m 298,520 c 41.33333,0 82.66667,0 124,0 0,-113.33333 0,-226.66667 0,-340 -41.33333,0 -82.66667,0 -124,0 0,113.33333 0,226.66667 0,340 z"
     style="opacity:1;fill:#000000;fill-opacity:1;stroke:#000000;stroke-width:8;stroke-linecap:round;stroke-linejoin:round;stroke-miterlimit:4;stroke-dasharray:none;stroke-opacity:1" />
  <path
     id="path4194"
     d="m 466,672.57227 c 41.33333,0 82.66667,0 124,0 C 590,449.71484 590,226.85742 590,4 548.66667,4 507.33333,4 466,4 c 0,222.85742 0,445.71484 0,668.57227 z"
     style="opacity:1;fill:#000000;fill-opacity:1;stroke:#000000;stroke-width:8;stroke-linecap:round;stroke-linejoin:round;stroke-miterlimit:4;stroke-dasharray:none;stroke-opacity:1" />
  <path
     id="path4192"
     d="m 4,128.04102 c 54.021607,0.85244 105.03229,38.20519 122.45391,89.31213 17.24733,47.97769 4.2688,105.33641 -32.815238,140.5531 C 69.870212,381.11162 37.256981,395.1748 4,395.95312 4,437.29232 4,478.63151 4,519.9707 82.294695,519.38902 159.22864,480.20296 206.21455,417.18242 251.00177,358.13846 268.32333,279.22517 252.14819,206.79872 235.95296,131.72246 184.35747,65.119162 115.3294,31.140283 80.81258,13.920228 42.491066,4.5066464 4,4.0332031 4,45.369141 4,86.705078 4,128.04102 Z"
     style="opacity:1;fill:#000000;fill-opacity:1;stroke:#000000;stroke-width:8;stroke-linecap:round;stroke-linejoin:round;stroke-miterlimit:0;stroke-dasharray:none;stroke-dashoffset:0;stroke-opacity:1" />
  <use
     x="630"
     y="0"
     xlink:href="#path4192"
     id="use4188"
     width="100%"
     height="100%" />
  <use
     x="922"
     y="0"
     xlink:href="#path4192"
     id="use4190"
     width="100%"
     height="100%"
     transform="matrix(-1,0,0,1,2106,0)" />
</svg>
