<?xml version="1.0" standalone="yes"?>
<svg xmlns="http://www.w3.org/2000/svg" width="307" height="251">
<path style="fill:#fbfcfc; stroke:none;" d="M0 0L0 251L307 251L307 0L0 0z"/>
<path style="fill:#99a5b1; stroke:none;" d="M209 16L210 17L209 16z"/>
<path style="fill:#386386; stroke:none;" d="M209 17C205.257 46.4649 195.738 72.7071 188 101C192.773 100.999 203.405 102.068 207.258 98.9722C211.106 95.8809 210.688 84.5704 211.282 80C213.699 61.3915 216.927 34.6574 209 17z"/>
<path style="fill:#99a5b1; stroke:none;" d="M208 18L208 21L209 21L208 18M210 20L210 23L211 23L210 20M207 24L207 27L208 27L207 24M211 26L211 29L212 29L211 26M206 30L206 33L207 33L206 30z"/>
<path style="fill:#f9cd0d; stroke:none;" d="M212 32C218.445 58.9963 210.888 90.5741 204.665 117C202.316 126.977 197.296 137.802 197 148L259 148C265.828 148 277.409 145.764 283 150C287.155 140.099 285.186 124.504 284.17 114C280.267 73.6664 257.926 32.3802 212 32z"/>
<path style="fill:#e6a308; stroke:none;" d="M212.333 33.6667L212.667 34.3333L212.333 33.6667z"/>
<path style="fill:#99a5b1; stroke:none;" d="M70 34L71 35L70 34M88 34L90 36L90 34L88 34z"/>
<path style="fill:#386386; stroke:none;" d="M71 35C76.6077 44.005 79.749 45.9284 75 56C85.1574 55.7904 88.2841 56.8521 94 66L95 66C93.9204 57.633 93.3629 54.034 103 54L103 53C93.0922 48.3741 92.2647 44.644 89 35C81.8788 42.2719 79.4075 38.6228 71 35z"/>
<path style="fill:#99a5b1; stroke:none;" d="M72 35L73 36L72 35M112 35L112 36L114 39L115 39L112 35M125 36L125 37L127 39L128 39L127 35L125 36M212 35L213 36L212 35M71 36L72 37L71 36M74 36L75 37L74 36M87 36L88 37L87 36z"/>
<path style="fill:#386386; stroke:none;" d="M113 36L114 37L113 36M126 36L123 42L114 37L120 46L120 47L115 54C122.589 53.8701 125.195 55.1791 129 62L130 62L129 53L136 51L126 36z"/>
<path style="fill:#99a5b1; stroke:none;" d="M205 36L205 39L206 39L205 36M72 37L73 38L72 37M116 37L117 38L116 37M73 38L74 39L73 38M77 38L78 39L77 38M117 38L118 39L117 38M124 38L125 39L124 38M79 39L80 40L79 39M85 39L86 40L85 39M90.3333 39.6667L90.6667 40.3333L90.3333 39.6667M115 40L116 41L115 40M120 40L121 41L120 40M75 41L76 42L75 41M82 41L83 42L82 41M122 41L123 42L122 41z"/>
<path style="fill:#e6a308; stroke:none;" d="M213 41L213 61L214 61L213 41z"/>
<path style="fill:#99a5b1; stroke:none;" d="M76 42L77 43L76 42M204 42L204 45L205 45L204 42M117 43L118 44L117 43M91 44L91 47L92 47L91 44M128.333 44.6667L128.667 45.3333L128.333 44.6667M79 46L80 47L79 46M119 46L120 47L119 46M129 46L130 47L129 46M92 47L93 48L92 47M130 47L131 48L130 47M203 47L203 50L204 50L203 47M79 48L80 49L79 48M94 48L95 49L94 48M132 48L133 49L132 48z"/>
<path style="fill:#386386; stroke:none;" d="M157 48L155 54L147 50C150.318 56.3132 150.798 58.4621 148 65C153.233 64.196 155.151 65.6661 158 70L159 70L159 63L165 63L165 62L157 48z"/>
<path style="fill:#99a5b1; stroke:none;" d="M96 49L97 50L96 49M117 49L118 50L117 49M133 49L134 50L133 49M146.667 49.3333L147.333 49.6667L146.667 49.3333M156 49L157 50L156 49M77 51L78 52L77 51M99 51L100 52L99 51M116 51L117 52L116 51M136 51L133 52L133 53L136 51M150 51L151 52L150 51M155 51L156 52L155 51M101 52L102 53L101 52M148 52L149 53L148 52M158 52L158 57L159 57L158 52M202 52L202 55L203 55L202 52z"/>
<path style="fill:#386386; stroke:none;" d="M55 53L50 62L34 55C41.2412 65.2797 45.677 65.002 40 77C52.6912 76.4551 53.6945 78.7407 64 86L61 74L72 73L72 72C59.854 67.0169 61.1136 63.0095 55 53z"/>
<path style="fill:#99a5b1; stroke:none;" d="M121 53L121 54L124 54L121 53M129 53L129 56L130 56L129 53M154 53L155 54L154 53M33 54L34 55L33 54M54 54L55 55L54 54M56.3333 54.6667L56.6667 55.3333L56.3333 54.6667M75 54L76 55L75 54M94 54L94 55L99 55L94 54M124 54L125 55L124 54M149 54L150 55L149 54M35 55L36 56L35 55M81 55L81 56L87 56L81 55M93 55L93 58L94 58L93 55M37 56L38 57L37 56M150 56L151 57L150 56M35 57L36 58L35 57M39 57L40 58L39 57M52 57L53 58L52 57M126 57L127 58L126 57M201.333 57.6667L201.667 58.3333L201.333 57.6667M36 58L37 59L36 58M42 58L43 59L42 58M57.3333 58.6667L57.6667 59.3333L57.3333 58.6667M151 58L152 59L151 58M37 59L38 60L37 59M44 59L45 60L44 59M89 59L90 60L89 59M161 59L162 60L161 59M38 60L39 61L38 60M46 60L47 61L46 60M50 60L51 61L50 60M90 60L91 61L90 60M128 60L129 61L128 60M130 60L130 64L131 64L130 60M162 60L163 61L162 60M39 61L40 62L39 61M48 61L49 62L48 61M94.3333 61.6667L94.6667 62.3333L94.3333 61.6667M149 61L150 62L149 61M200.333 61.6667L200.667 62.3333L200.333 61.6667M40 62L41 63L40 62M58.3333 62.6667L58.6667 63.3333L58.3333 62.6667M165 62L166 63L165 62M41 63L42 64L41 63M92 63L93 64L92 63M148 63L149 64L148 63M159.667 63.3333L160.333 63.6667L159.667 63.3333M42 64L43 65L42 64M93 64L94 65L93 64M150 64L150 65L154 65L150 64M43 65L44 66L43 65M155 65L156 66L155 65M199.333 65.6667L199.667 66.3333L199.333 65.6667M44 66L45 67L44 66M59 66L60 67L59 66M95 66L96 67L95 66M159 66L159 73L160 73L159 66M45 67L46 68L45 67M61 67L62 68L61 67M156 67L157 68L156 67M63 68L64 69L63 68M212 68L212 71L213 71L212 68M44 69L45 70L44 69M66 69L67 70L66 69M181 69L182 70L181 69M198.333 69.6667L198.667 70.3333L198.333 69.6667M68 70L69 71L68 70z"/>
<path style="fill:#386386; stroke:none;" d="M181 70L179 75L173 71C175.16 76.2177 176.153 78.6328 174 84L179 83L181 88L182 88L182 82L186 82L181 70z"/>
<path style="fill:#99a5b1; stroke:none;" d="M70 71L71 72L70 71M174 71L175 72L174 71M180 71L181 72L180 71z"/>
<path style="fill:#e6a308; stroke:none;" d="M212 71L212 74L213 74L212 71z"/>
<path style="fill:#99a5b1; stroke:none;" d="M42 72L43 73L42 72M72 72L73 73L72 72M173 72L174 73L173 72M175 72L176 73L175 72M69 73L69 74L72 74L69 73M179 73L180 74L179 73M197 73L198 74L197 73M61 76L64 75L61 76M174 74L175 75L174 74M178 74L179 75L178 74M40 75L41 76L40 75M52 75L53 76L52 75M39.3333 76.6667L39.6667 77.3333L39.3333 76.6667M45 76L45 77L48 77L45 76M175 76L176 77L175 76M196.333 76.6667L196.667 77.3333L196.333 76.6667M182 77L183 78L182 77M176 78L177 79L176 78M211.333 78.6667L211.667 79.3333L211.333 78.6667M62 79L63 80L62 79M185 79L186 80L185 79M195.333 79.6667L195.667 80.3333L195.333 79.6667M175 80L176 81L175 80M186.333 80.6667L186.667 81.3333L186.333 80.6667z"/>
<path style="fill:#e6a308; stroke:none;" d="M211.333 80.6667L211.667 81.3333L211.333 80.6667z"/>
<path style="fill:#99a5b1; stroke:none;" d="M59 82L60 83L59 82M174 82L175 83L174 82M182 82L182 90L183 90L182 82M194.333 82.6667L194.667 83.3333L194.333 82.6667M60 83L61 84L60 83M63 83L64 84L63 83M177.667 83.3333L178.333 83.6667L177.667 83.3333M61 84L62 85L61 84M179 84L180 85L179 84M62 85L63 86L62 85M193 85L194 86L193 85M63 86L64 87L63 86M180 86L181 87L180 86M210.333 86.6667L210.667 87.3333L210.333 86.6667M35 89L38 88L35 89z"/>
<path style="fill:#386386; stroke:none;" d="M36 88C29.2182 97.8878 23.9798 93.3088 14 91L27 102L27 103L20 112L34 110.158L46 118L43 107L55 105L55 104C45.034 101.694 39.5727 98.6492 38 88L36 88z"/>
<path style="fill:#99a5b1; stroke:none;" d="M192 88L193 89L192 88z"/>
<path style="fill:#e6a308; stroke:none;" d="M210 88L211 89L210 88z"/>
<path style="fill:#99a5b1; stroke:none;" d="M13.3333 90.6667L13.6667 91.3333L13.3333 90.6667M34 90L35 91L34 90M38.3333 90.6667L38.6667 91.3333L38.3333 90.6667M191.333 90.6667L191.667 91.3333L191.333 90.6667M16 91L17 92L16 91M33 91L34 92L33 91M19 92L20 93L19 92M209.333 92.6667L209.667 93.3333L209.333 92.6667M22 93L23 94L22 93M32 93L33 94L32 93M39.3333 93.6667L39.6667 94.3333L39.3333 93.6667M190 93L191 94L190 93M17 94L18 95L17 94M25 94L26 95L25 94z"/>
<path style="fill:#e6a308; stroke:none;" d="M209 94L210 95L209 94z"/>
<path style="fill:#99a5b1; stroke:none;" d="M18 95L19 96L18 95M28 95L29 96L28 95M189.333 95.6667L189.667 96.3333L189.333 95.6667M19 96L20 97L19 96M40 97L41 98L40 97M188 98L189 99L188 98M208 98L209 99L208 98z"/>
<path style="fill:#e6a308; stroke:none;" d="M208 99L209 100L208 99z"/>
<path style="fill:#99a5b1; stroke:none;" d="M24 100L25 101L24 100M43.6667 100.333L44.3333 100.667L43.6667 100.333M187 100L192 102L192 101L187 100M198 100L198 101L205 101L198 100M25 101L26 102L25 101M46.6667 101.333L47.3333 101.667L46.6667 101.333M26 102L27 103L26 102M49.6667 102.333L50.3333 102.667L49.6667 102.333M25 103L26 104L25 103M52.6667 103.333L53.3333 103.667L52.6667 103.333M55 104L56 105L55 104M201 104L201 105L206 105L201 104z"/>
<path style="fill:#386386; stroke:none;" d="M206 104C198.246 106.297 185.827 102.791 183 112L206 111L206 104z"/>
<path style="fill:#e6a308; stroke:none;" d="M207.333 104.667L207.667 105.333L207.333 104.667z"/>
<path style="fill:#99a5b1; stroke:none;" d="M24 105L25 106L24 105M52.6667 105.333L53.3333 105.667L52.6667 105.333M188 105L188 106L197 106L188 105M23 106L24 107L23 106M47.6667 106.333L48.3333 106.667L47.6667 106.333M43.3333 107.667L43.6667 108.333L43.3333 107.667M184 107L185 108L184 107M22 108L23 109L22 108M206 108L207 109L206 108M21 109L22 110L21 109M32 109L32 110L35 110L32 109M183 109L184 110L183 109z"/>
<path style="fill:#e6a308; stroke:none;" d="M206 109L207 110L206 109z"/>
<path style="fill:#99a5b1; stroke:none;" d="M28.6667 110.333L29.3333 110.667L28.6667 110.333M23.6667 111.333L24.3333 111.667L23.6667 111.333M37 111L38 112L37 111M44 111L45 112L44 111M182 111L183 112L182 111M189 111L189 112L202 112L189 111M38 112L39 113L38 112M39 113L40 114L39 113M45 114L46 115L45 114M204 114L205 115L204 114M191 115L191 116L200 116L191 115z"/>
<path style="fill:#386386; stroke:none;" d="M177 122L204 121L205 115C196.691 115.357 181.058 113.464 177 122z"/>
<path style="fill:#99a5b1; stroke:none;" d="M179 116L179 117L184 117L179 116M44 117L45 118L44 117M46 117L47 120L46 117M204 117L205 118L204 117M178 118L179 119L178 118z"/>
<path style="fill:#e6a308; stroke:none;" d="M204 118L205 119L204 118z"/>
<path style="fill:#99a5b1; stroke:none;" d="M177 120L178 121L177 120M196 121L196 122L203 122L196 121M176 122L176 123L189 123L176 122M191 125L191 126L201 126L191 125z"/>
<path style="fill:#386386; stroke:none;" d="M201 125C191.28 127.873 175.245 122.336 170 133C176.006 132.996 204.302 134.496 201 125z"/>
<path style="fill:#99a5b1; stroke:none;" d="M202 125L203 126L202 125M174 126L174 127L185 127L174 126z"/>
<path style="fill:#e6a308; stroke:none;" d="M202 126L203 127L202 126z"/>
<path style="fill:#99a5b1; stroke:none;" d="M172 128L173 129L172 128z"/>
<path style="fill:#e6a308; stroke:none;" d="M201.333 129.667L201.667 130.333L201.333 129.667z"/>
<path style="fill:#99a5b1; stroke:none;" d="M170 131L171 132L170 131M196 131L196 132L201 132L196 131M36 132L38 134L38 132L36 132M179 132L179 133L191 133L179 132z"/>
<path style="fill:#386386; stroke:none;" d="M36 133L31 142L15 139L15 140L27 147L21 157L34 154.081L46 160L43 150L54 147L54 146C42.4108 144.503 42.7697 140.679 36 133z"/>
<path style="fill:#99a5b1; stroke:none;" d="M169 133L169 134L172 134L169 133M35 134L36 135L35 134M185 135L185 136L195 136L185 135z"/>
<path style="fill:#386386; stroke:none;" d="M162 144C171.867 143.221 196.223 145.457 200 135C188.306 135.502 168.805 133.249 162 144z"/>
<path style="fill:#99a5b1; stroke:none;" d="M38 136L39 137L38 136M169 136L169 137L179 137L169 136M199 136L200 137L199 136M33 137L34 138L33 137M166 137L167 138L166 137z"/>
<path style="fill:#e6a308; stroke:none;" d="M199 137L200 138L199 137z"/>
<path style="fill:#99a5b1; stroke:none;" d="M14.6667 138.333L15.3333 138.667L14.6667 138.333M165 138L166 139L165 138M19.6667 139.333L20.3333 139.667L19.6667 139.333M39 139L40 140L39 139M198 139L199 140L198 139M16 140L17 141L16 140M24.6667 140.333L25.3333 140.667L24.6667 140.333M31 140L32 141L31 140M164 140L165 141L164 140z"/>
<path style="fill:#e6a308; stroke:none;" d="M198 140L199 141L198 140z"/>
<path style="fill:#99a5b1; stroke:none;" d="M29.6667 141.333L30.3333 141.667L29.6667 141.333M163 141L164 142L163 141M190 141L190 142L198 142L190 141M19 142L20 143L19 142M40 142L41 143L40 142M177 142L177 143L185 143L177 142M20 143L21 144L20 143M41 143L42 144L41 143M166 143L166 144L173 144L166 143M22 144L23 145L22 144M45.6667 144.333L46.3333 144.667L45.6667 144.333M161 144L162 145L161 144M194 144L194 145L197 145L194 144M23 145L24 146L23 145M50.6667 145.333L51.3333 145.667L50.6667 145.333M183 145L183 146L190 146L183 145z"/>
<path style="fill:#386386; stroke:none;" d="M152 157C161.793 154.466 171.936 152.861 182 151.925C188.695 151.303 194.463 152.025 197 145C183.994 145.108 158.695 144.14 152 157z"/>
<path style="fill:#99a5b1; stroke:none;" d="M54 146L55 147L54 146M173 146L173 147L180 147L173 146z"/>
<path style="fill:#e6a308; stroke:none;" d="M196 146L175 204C207.709 183.562 239.454 153.894 281 165L283 148L223 148C214.767 148 203.365 150.096 196 146z"/>
<path style="fill:#99a5b1; stroke:none;" d="M26.3333 147.667L26.6667 148.333L26.3333 147.667M52 147L53 148L52 147M165 147L165 148L170 148L165 147M49 148L50 149L49 148M158 148L158 149L162 149L158 148M45.6667 149.333L46.3333 149.667L45.6667 149.333M157 149L158 150L157 149M43 150L43 153L44 153L43 150M156 150L157 151L156 150M24 151L25 152L24 151M155 151L156 152L155 151M185 151L185 152L191 152L185 151M176 152L176 153L181 153L176 152z"/>
<path style="fill:#f9cd0d; stroke:none;" d="M194.333 152.667L194.667 153.333L194.333 152.667z"/>
<path style="fill:#99a5b1; stroke:none;" d="M33 153L34 154L33 153M35 153L36 154L35 153M169 153L169 154L173 154L169 153M22 154L23 155L22 154M30 154L31 155L30 154M36 154L37 155L36 154M44.3333 154.667L44.6667 155.333L44.3333 154.667M163 154L163 155L167 155L163 154M190 154L190 155L194 156L190 154z"/>
<path style="fill:#f9cd0d; stroke:none;" d="M282 154L282 158L283 158L282 154z"/>
<path style="fill:#99a5b1; stroke:none;" d="M27 155L28 156L27 155M152 155L153 156L152 155M158 155L158 156L161 156L158 155M182 155L182 156L187 156L182 155z"/>
<path style="fill:#386386; stroke:none;" d="M110 196C126.692 191.298 143.914 188.279 161 185.414C166.915 184.422 178.573 184.826 183.301 181.012C188.595 176.741 192.037 161.522 193 155C159.393 155.694 131.261 169.715 110 196z"/>
<path style="fill:#99a5b1; stroke:none;" d="M24 156L25 157L24 156M39 156L40 157L39 156M151 156L150 158L152 158L151 156M153 156L153 157L156 157L153 156M175 156L175 157L179 157L175 156M21 157L22 158L21 157M45.3333 157.667L45.6667 158.333L45.3333 157.667M169 157L169 158L173 158L169 157M42 158L43 159L42 158M164 158L164 159L167 159L164 158M192 158L193 159L192 158M159 159L159 160L162 160L159 159M45.6667 160.333L46.3333 160.667L45.6667 160.333M156.667 160.333L157.333 160.667L156.667 160.333M152.667 161.333L153.333 161.667L152.667 161.333M148 162L148 163L151 163L148 162z"/>
<path style="fill:#f9cd0d; stroke:none;" d="M254 162L254 163L257 163L254 162M270 162L270 163L273 163L270 162M281 162L281 165L282 165L281 162z"/>
<path style="fill:#99a5b1; stroke:none;" d="M145.667 163.333L146.333 163.667L145.667 163.333z"/>
<path style="fill:#f9cd0d; stroke:none;" d="M249.667 163.333L250.333 163.667L249.667 163.333M275.667 163.333L276.333 163.667L275.667 163.333z"/>
<path style="fill:#99a5b1; stroke:none;" d="M144 164L145 165L144 164z"/>
<path style="fill:#f9cd0d; stroke:none;" d="M245 164L246 165L245 164M278 164L279 165L278 164z"/>
<path style="fill:#99a5b1; stroke:none;" d="M143 165L144 166L143 165z"/>
<path style="fill:#f9cd0d; stroke:none;" d="M241.667 165.333L242.333 165.667L241.667 165.333M280 165L281 166L280 165z"/>
<path style="fill:#99a5b1; stroke:none;" d="M142 166L143 167L142 166M189 166L190 167L189 166z"/>
<path style="fill:#f9cd0d; stroke:none;" d="M238.667 166.333L239.333 166.667L238.667 166.333z"/>
<path style="fill:#99a5b1; stroke:none;" d="M141 167L142 168L141 167z"/>
<path style="fill:#f9cd0d; stroke:none;" d="M236 167L237 168L236 167z"/>
<path style="fill:#99a5b1; stroke:none;" d="M140 168L141 169L140 168z"/>
<path style="fill:#386386; stroke:none;" d="M234 168L212 178L212 179L237 180L234 168z"/>
<path style="fill:#99a5b1; stroke:none;" d="M139 169L140 170L139 169M188 169L189 170L188 169M235 169L235 173L236 173L235 169z"/>
<path style="fill:#386386; stroke:none;" d="M55 170C50.5873 179.431 46.3128 178.006 37 178L37 179L47 184L42 193C51.4146 189.794 54.0163 189.22 63 194C61.2561 186.252 62.9407 184.368 70 181L70 180C59.8147 179.999 60.263 177.376 55 170z"/>
<path style="fill:#99a5b1; stroke:none;" d="M138 170L139 171L138 170M228 170L229 171L228 170M54 171L55 172L54 171M56 171L57 172L56 171M137 171L138 172L137 171M226 171L227 172L226 171M136 172L137 173L136 172M53 173L54 174L53 173M135 173L136 174L135 173M57.3333 174.667L57.6667 175.333L57.3333 174.667M236 175L236 179L237 179L236 175M51 176L52 177L51 176M36 177L36 178L39 178L36 177M185 177L186 178L185 177M46 178L46 179L51 179L46 178M58 178L59 179L58 178M129 178L130 179L129 178M38 179L39 180L38 179M59 179L59 180L63 180L59 179M128 179L129 180L128 179M210 179C216.973 186.983 226.057 180.007 235 180L210 179M40 180L41 181L40 180M70 180L71 181L70 180M127 180L128 181L127 180M209 180L210 181L209 180M69 181L70 182L69 181M126 181L127 182L126 181M207 181L208 182L207 181M43 182L44 183L43 182M66 182L67 183L66 182M125 182L126 183L125 182M179 182L179 183L183 183L179 182z"/>
<path style="fill:#f9cd0d; stroke:none;" d="M183 182L184 183L183 182M205 182L206 183L205 182z"/>
<path style="fill:#99a5b1; stroke:none;" d="M45 183L46 184L45 183M64 183L65 184L64 183M124 183L125 184L124 183M172 183L172 184L176 184L172 183z"/>
<path style="fill:#f9cd0d; stroke:none;" d="M203 183L204 184L203 183z"/>
<path style="fill:#99a5b1; stroke:none;" d="M46 184L47 185L46 184M62 184L63 185L62 184M166 184L166 185L169 185L166 184M121 185L122 186L121 185M160 185L160 186L163 186L160 185z"/>
<path style="fill:#f9cd0d; stroke:none;" d="M182 185L183 186L182 185M200 185L201 186L200 185z"/>
<path style="fill:#99a5b1; stroke:none;" d="M45 186L46 187L45 186M120 186L121 187L120 186M154 186L154 187L157 187L154 186M61.3333 187.667L61.6667 188.333L61.3333 187.667M119 187L120 188L119 187M148 187L148 188L151 188L148 187z"/>
<path style="fill:#f9cd0d; stroke:none;" d="M181 187L182 188L181 187M197 187L198 188L197 187z"/>
<path style="fill:#99a5b1; stroke:none;" d="M52.6667 188.333L53.3333 188.667L52.6667 188.333M118 188L119 189L118 188M143 188L143 189L146 189L143 188M43 189L44 190L43 189M50 189L51 190L50 189M55 189L56 190L55 189M138 189L138 190L141 190L138 189z"/>
<path style="fill:#f9cd0d; stroke:none;" d="M194 189L195 190L194 189z"/>
<path style="fill:#99a5b1; stroke:none;" d="M48 190L49 191L48 190M115 190L116 191L115 190M133 190L133 191L136 191L133 190M42 191L43 192L42 191M46 191L47 192L46 191M58 191L59 192L58 191M62 191L63 192L62 191M114 191L115 192L114 191M128 191L128 192L131 192L128 191z"/>
<path style="fill:#f9cd0d; stroke:none;" d="M191 191L192 192L191 191z"/>
<path style="fill:#99a5b1; stroke:none;" d="M43 192L44 193L43 192M60 192L61 193L60 192M113 192L114 193L113 192M124.667 192.333L125.333 192.667L124.667 192.333z"/>
<path style="fill:#f9cd0d; stroke:none;" d="M179 192L180 193L179 192z"/>
<path style="fill:#99a5b1; stroke:none;" d="M41 193L42 194L41 193M119 193L119 194L122 194L119 193z"/>
<path style="fill:#f9cd0d; stroke:none;" d="M188 193L189 194L188 193z"/>
<path style="fill:#99a5b1; stroke:none;" d="M110 194L111 195L110 194M115.667 194.333L116.333 194.667L115.667 194.333z"/>
<path style="fill:#f9cd0d; stroke:none;" d="M187 194L188 195L187 194z"/>
<path style="fill:#99a5b1; stroke:none;" d="M109 195L110 196L109 195M111.667 195.333L112.333 195.667L111.667 195.333M83 196L84 197L83 196z"/>
<path style="fill:#386386; stroke:none;" d="M83 197C79.2184 203.984 75.4377 204 68 204L68 205L76 209L72 217C79.1596 214.009 81.644 213.353 89 216L87 209L95 205L95 204C88.0425 203.975 86.8605 202.267 83 197z"/>
<path style="fill:#f9cd0d; stroke:none;" d="M177 197L178 198L177 197M183 197L184 198L183 197z"/>
<path style="fill:#99a5b1; stroke:none;" d="M82 198L83 199L82 198M84 198L85 199L84 198z"/>
<path style="fill:#f9cd0d; stroke:none;" d="M176 199L177 200L176 199z"/>
<path style="fill:#99a5b1; stroke:none;" d="M80 201L81 202L80 201z"/>
<path style="fill:#f9cd0d; stroke:none;" d="M175 201L176 202L175 201M178 201L179 202L178 201z"/>
<path style="fill:#99a5b1; stroke:none;" d="M85 202L86 203L85 202z"/>
<path style="fill:#f9cd0d; stroke:none;" d="M177 202L178 203L177 202z"/>
<path style="fill:#99a5b1; stroke:none;" d="M79 203L80 204L79 203z"/>
<path style="fill:#f9cd0d; stroke:none;" d="M176 203L177 204L176 203z"/>
<path style="fill:#99a5b1; stroke:none;" d="M95 204L96 205L95 204M162 204L163 205L162 204z"/>
<path style="fill:#e6a308; stroke:none;" d="M174 204L175 205L174 204z"/>
<path style="fill:#99a5b1; stroke:none;" d="M69 205L70 206L69 205z"/>
<path style="fill:#386386; stroke:none;" d="M162 205L155 210L155 211L156 218L164 217L167 211L167 210L162 205z"/>
<path style="fill:#99a5b1; stroke:none;" d="M71 206L72 207L71 206M161 206L162 207L161 206M163 206L163 209L164 209L163 206M90 207L91 208L90 207M74 208L75 209L74 208M88 208L89 209L88 208M113 208L114 209L113 208M160 208L161 209L160 208M87.3333 209.667L87.6667 210.333L87.3333 209.667z"/>
<path style="fill:#386386; stroke:none;" d="M113 209L103 217C106.238 220.164 105.655 221.988 104 226C109.049 223.884 111.747 223.015 117 225C116.761 220.333 117.862 218.238 122 216L122 215L115 215L113 209z"/>
<path style="fill:#99a5b1; stroke:none;" d="M155 209L155 210L160 210L155 209M164 209L164 210L169 210L164 209M75 210L76 211L75 210M112 210L113 211L112 210M114.333 210.667L114.667 211.333L114.333 210.667z"/>
<path style="fill:#386386; stroke:none;" d="M140 211L132 217L132 218L136 220L133 226C136.979 223.881 138.811 223.019 143 225L147 217L147 216L140 211z"/>
<path style="fill:#99a5b1; stroke:none;" d="M141 211L141 214L142 214L141 211M156 211L157 212L156 211M165 211L166 212L165 211M80.6667 212.333L81.3333 212.667L80.6667 212.333M157 212L158 213L157 212M164 212L165 213L164 212M73 213L74 214L73 213M83 213L84 214L83 213M88.3333 213.667L88.6667 214.333L88.3333 213.667M77 214L78 215L77 214M85 214L86 215L85 214M119 214L119 215L123 215L119 214M138 214L139 215L138 214M157 214L158 215L157 214M72 215L73 216L72 215M75 215L76 216L75 215M101 215L101 216L106 216L101 215M160 215L161 216L160 215M73 216L74 217L73 216M88 216L89 217L88 216M120 216L121 217L120 216M131 218L137 217L131 218M147 216L148 217L147 216M156 216L157 217L156 216M158 216L159 217L158 216M103 217L104 218L103 217M118 217L119 218L118 217M157 217L158 218L157 217M163 217L164 218L163 217M105 218L106 219L105 218M144 218L145 219L144 218M155 218L156 219L155 218M134 219L135 220L134 219M116.333 220.667L116.667 221.333L116.333 220.667M135 220L136 221L135 220M142 220L143 221L142 220M106 221L107 222L106 221M110 222L111 223L110 222M134 222L135 223L134 222M138 222L139 223L138 222M113 223L114 224L113 223M140 223L141 224L140 223M104 224L105 225L104 224M107 224L108 225L107 224M115 224L116 225L115 224M133 224L134 225L133 224M135 224L136 225L135 224M141 224L142 225L141 224M105 225L106 226L105 225M103 226L104 227L103 226z"/>
</svg>
