<?xml version="1.0" encoding="UTF-8" standalone="no"?>
<svg
   width="336"
   height="353"
   version="1.1"
   id="svg1126"
   sodipodi:docname="QuTech.svg"
   inkscape:version="1.1.1 (c3084ef, 2021-09-22)"
   xmlns:inkscape="http://www.inkscape.org/namespaces/inkscape"
   xmlns:sodipodi="http://sodipodi.sourceforge.net/DTD/sodipodi-0.dtd"
   xmlns="http://www.w3.org/2000/svg"
   xmlns:svg="http://www.w3.org/2000/svg">
  <defs
     id="defs1130" />
  <sodipodi:namedview
     id="namedview1128"
     pagecolor="#ffffff"
     bordercolor="#666666"
     borderopacity="1.0"
     inkscape:pageshadow="2"
     inkscape:pageopacity="0.0"
     inkscape:pagecheckerboard="0"
     showgrid="false"
     inkscape:zoom="2.0368272"
     inkscape:cx="166.68081"
     inkscape:cy="182.14604"
     inkscape:window-width="2048"
     inkscape:window-height="1152"
     inkscape:window-x="0"
     inkscape:window-y="0"
     inkscape:window-maximized="0"
     inkscape:current-layer="svg1126" />
  <path
     style="fill:#083b5f; stroke:none;"
     d="M143.17 59.0471C136.924 62.2364 132.243 79.4237 142.816 74.588C149.425 71.5654 152.924 54.0655 143.17 59.0471M170.086 59.7863C164.058 61.8971 159.834 77.0863 168.965 74.338C175.839 72.269 179.938 56.3366 170.086 59.7863M196.184 60.7863C189.919 63.083 188.275 76.4874 196.91 73.3773C203.266 71.0885 204.852 57.6085 196.184 60.7863z"
     id="path826" />
  <path
     style="fill:#053b82; stroke:none;"
     d="M200 60L201 61L200 60M202 67L203 68L202 67z"
     id="path828" />
  <path
     style="fill:#116f9d; stroke:none;"
     d="M200 70L201 71L200 70z"
     id="path830" />
  <path
     style="fill:#083b5f; stroke:none;"
     d="M93 81L94 82L93 81M114 81L107 90C105.02 110.843 132.779 84.1187 114 81M139.213 84.0285C133.12 87.584 132.893 103.083 141.621 97.8164C147.73 94.13 148.704 78.49 139.213 84.0285M166.185 85.0471C160.382 88.0884 159.61 102.182 167.896 97.9529C174.142 94.7651 174.705 80.5816 166.185 85.0471M197 98C196.889 94.8932 200.35 93.5476 200 90C198.587 75.6638 179.126 97.3828 192 98.8333C193.599 99.0135 195.432 98.2889 197 98z"
     id="path832" />
  <path
     style="fill:#053b82; stroke:none;"
     d="M198 86L199 87L198 86z"
     id="path834" />
  <path
     style="fill:#116f9d; stroke:none;"
     d="M221 86L222 87L221 86M199 87L200 88L199 87M218 87L219 88L218 87z"
     id="path836" />
  <path
     style="fill:#053b82; stroke:none;"
     d="M216 98C221.063 96.4523 223.814 92.0037 225 87C218.097 87.2246 214.967 91.1166 216 98M190 88L191 89L190 88z"
     id="path838" />
  <path
     style="fill:#116f9d; stroke:none;"
     d="M225 88L218 99C223.683 98.2335 228.717 93.7192 225 88M246.147 89.0717C240.81 91.8604 244.008 100.982 249.853 97.9282C255.19 95.1395 251.992 86.0179 246.147 89.0717z"
     id="path840" />
  <path
     style="fill:#053b82; stroke:none;"
     d="M250 88L251 89L250 88z"
     id="path842" />
  <path
     style="fill:#116f9d; stroke:none;"
     d="M216 90L217 91L216 90M215.333 92.6667L215.667 93.3333L215.333 92.6667z"
     id="path844" />
  <path
     style="fill:#053b82; stroke:none;"
     d="M198 94L199 95L198 94z"
     id="path846" />
  <path
     style="fill:#083b5f; stroke:none;"
     d="M89 95L90 96L89 95z"
     id="path848" />
  <path
     style="fill:#053b82; stroke:none;"
     d="M196 96L197 97L196 96z"
     id="path850" />
  <path
     style="fill:#116f9d; stroke:none;"
     d="M197 96L198 97L197 96z"
     id="path852" />
  <path
     style="fill:#053b82; stroke:none;"
     d="M169 97L170 98L169 97M223 97L224 98L223 97M190 98L191 99L190 98M194 98L195 99L194 98M222 98L223 99L222 98M245 98L246 99L245 98z"
     id="path854" />
  <path
     style="fill:#083b5f; stroke:none;"
     d="M83 106L85 108L83 106M106.144 107.786C100.235 110.007 96.9156 130.035 106.776 126.214C112.852 123.86 116.171 104.017 106.144 107.786M135.039 108.971C128.612 110.366 124.684 127.661 133.897 126.418C140.391 125.542 144.195 106.983 135.039 108.971M161.277 111.047C155.88 114.157 155.754 130.336 163.776 125.164C169.099 121.732 169.547 106.282 161.277 111.047z"
     id="path856" />
  <path
     style="fill:#116f9d; stroke:none;"
     d="M167 111L168 112L167 111z"
     id="path858" />
  <path
     style="fill:#053b82; stroke:none;"
     d="M190.09 112.217C184.011 114.746 183.517 128.644 191.776 125.377C197.216 123.226 197.288 109.221 190.09 112.217z"
     id="path860" />
  <path
     style="fill:#116f9d; stroke:none;"
     d="M192 111L193 112L192 111z"
     id="path862" />
  <path
     style="fill:#083b5f; stroke:none;"
     d="M188 112L189 113L188 112z"
     id="path864" />
  <path
     style="fill:#053b82; stroke:none;"
     d="M168 113L169 114L168 113z"
     id="path866" />
  <path
     style="fill:#083b5f; stroke:none;"
     d="M187 113L188 114L187 113z"
     id="path868" />
  <path
     style="fill:#116f9d; stroke:none;"
     d="M195 113L196 114L195 113M217.277 113.786C211.846 115.98 212.662 127.974 219.791 125.214C225.764 122.901 224.541 110.852 217.277 113.786z"
     id="path870" />
  <path
     style="fill:#053b82; stroke:none;"
     d="M221 113L222 114L221 113z"
     id="path872" />
  <path
     style="fill:#083b5f; stroke:none;"
     d="M84 114L85 115L84 114M186 115L187 116L186 115z"
     id="path874" />
  <path
     style="fill:#116f9d; stroke:none;"
     d="M244.434 116.032C239.84 119.086 243.139 128.128 248.772 124.953C254.486 121.733 250.265 112.156 244.434 116.032z"
     id="path876" />
  <path
     style="fill:#053b82; stroke:none;"
     d="M168 116L169 117L168 116z"
     id="path878" />
  <path
     style="fill:#083b5f; stroke:none;"
     d="M83 117L84 118L83 117z"
     id="path880" />
  <path
     style="fill:#053b82; stroke:none;"
     d="M167 119L168 120L167 119M166 122L167 123L166 122M222 123L223 124L222 123M165 124L166 125L165 124M164 125L165 126L164 125M220 125L221 126L220 125z"
     id="path882" />
  <path
     style="fill:#083b5f; stroke:none;"
     d="M74 133C73.3631 136.613 71.3181 139.483 70.3156 142.996C68.9922 147.634 70.9522 160.5 78.2577 153.257C83.7603 147.801 82.3791 133.77 74 133M52 134L53 135L52 134M72 134L73 135L72 134M103.224 134.801C97.1021 136.995 95.3069 157.836 104.86 154.214C110.911 151.919 112.376 131.52 103.224 134.801M130.433 137.032C125.156 140.515 126.199 158.49 134.567 152.968C139.844 149.485 138.801 131.51 130.433 137.032M156 148L165 138C157.867 136.266 156.491 141.994 156 148z"
     id="path884" />
  <path
     style="fill:#116f9d; stroke:none;"
     d="M165 138L166 139L165 138z"
     id="path886" />
  <path
     style="fill:#053b82; stroke:none;"
     d="M164 139L156 148C159.202 161.029 167.558 146.986 166 139L164 139M187 139L186 141L188 141L187 139z"
     id="path888" />
  <path
     style="fill:#116f9d; stroke:none;"
     d="M188.482 139.877C182.522 142.653 184.1 155.886 191.701 152.253C196.948 149.745 195.611 136.557 188.482 139.877z"
     id="path890" />
  <path
     style="fill:#083b5f; stroke:none;"
     d="M166 140L167 141L166 140z"
     id="path892" />
  <path
     style="fill:#116f9d; stroke:none;"
     d="M216.434 141.032C211.816 144.1 214.369 155.644 220.722 151.953C226.442 148.63 223.111 136.597 216.434 141.032M246.144 141.801C240.431 143.841 243.21 154.443 249.683 151.392C254.24 149.244 251.648 139.835 246.144 141.801z"
     id="path894" />
  <path
     style="fill:#053b82; stroke:none;"
     d="M186 142L187 143L186 142z"
     id="path896" />
  <path
     style="fill:#116f9d; stroke:none;"
     d="M273 143L272 146L273 146L273 143z"
     id="path898" />
  <path
     style="fill:#1997d3; stroke:none;"
     d="M274.437 144.047C270.19 146.786 274.327 153.542 278.685 150.928C283.108 148.275 278.823 141.218 274.437 144.047z"
     id="path900" />
  <path
     style="fill:#116f9d; stroke:none;"
     d="M279 143L280 144L279 143z"
     id="path902" />
  <path
     style="fill:#083b5f; stroke:none;"
     d="M166 144L167 145L166 144z"
     id="path904" />
  <path
     style="fill:#116f9d; stroke:none;"
     d="M280 144L281 145L280 144z"
     id="path906" />
  <path
     style="fill:#053b82; stroke:none;"
     d="M184.333 148.667L184.667 149.333L184.333 148.667z"
     id="path908" />
  <path
     style="fill:#116f9d; stroke:none;"
     d="M272 149L273 150L272 149M136 151L137 152L136 151z"
     id="path910" />
  <path
     style="fill:#083b5f; stroke:none;"
     d="M156 151L157 152L156 151z"
     id="path912" />
  <path
     style="fill:#053b82; stroke:none;"
     d="M185 151L186 152L185 151z"
     id="path914" />
  <path
     style="fill:#116f9d; stroke:none;"
     d="M274 151L275 152L274 151z"
     id="path916" />
  <path
     style="fill:#083b5f; stroke:none;"
     d="M157 152L158 153L157 152z"
     id="path918" />
  <path
     style="fill:#116f9d; stroke:none;"
     d="M164 152L165 153L164 152z"
     id="path920" />
  <path
     style="fill:#053b82; stroke:none;"
     d="M192 152L193 153L192 152z"
     id="path922" />
  <path
     style="fill:#083b5f; stroke:none;"
     d="M162 153L163 154L162 153M43 155L44 156L43 155M73.054 162.931C66.0804 164.828 66.9496 187.192 75.892 184.199C82.7383 181.908 82.0376 160.489 73.054 162.931M49 163L50 164L49 163M102.054 163.89C95.5854 165.529 95.7037 184.972 103.957 183.458C110.767 182.208 109.867 161.912 102.054 163.89z"
     id="path924" />
  <path
     style="fill:#053b82; stroke:none;"
     d="M130 164L131 165L130 164z"
     id="path926" />
  <path
     style="fill:#083b5f; stroke:none;"
     d="M129 183C135.226 181.378 140.247 172.064 135.258 166.449C131.46 162.175 127.413 166.987 127.059 171.004C126.914 172.638 126.958 174.347 127.019 175.985C127.118 178.684 127.768 180.632 129 183z"
     id="path928" />
  <path
     style="fill:#116f9d; stroke:none;"
     d="M133 164L134 165L133 164z"
     id="path930" />
  <path
     style="fill:#083b5f; stroke:none;"
     d="M50 165L51 166L50 165z"
     id="path932" />
  <path
     style="fill:#053b82; stroke:none;"
     d="M128 165L129 166L128 165z"
     id="path934" />
  <path
     style="fill:#116f9d; stroke:none;"
     d="M159 165L160 166L159 165z"
     id="path936" />
  <path
     style="fill:#053b82; stroke:none;"
     d="M157 180L164 170L165 170L165 173C166.233 168.782 161.974 163.267 157.603 167.049C154.505 169.731 156.017 176.674 157 180z"
     id="path938" />
  <path
     style="fill:#116f9d; stroke:none;"
     d="M161 165L162 166L161 165M127 166L128 167L127 166M157 166L158 167L157 166M188.093 166.851C181.521 168.924 183.385 182.72 190.853 180.819C196.435 179.399 195.057 164.655 188.093 166.851z"
     id="path940" />
  <path
     style="fill:#053b82; stroke:none;"
     d="M136 167L137 168L136 167z"
     id="path942" />
  <path
     style="fill:#116f9d; stroke:none;"
     d="M217.144 167.851C211.762 169.612 213.19 182.331 219.856 180.149C225.238 178.388 223.81 165.669 217.144 167.851M165.333 168.667L165.667 169.333L165.333 168.667z"
     id="path944" />
  <path
     style="fill:#053b82; stroke:none;"
     d="M193 168L194 169L193 168z"
     id="path946" />
  <path
     style="fill:#116f9d; stroke:none;"
     d="M249 180C249.157 177.175 251.117 174.806 251.177 172.094C251.36 163.694 233.957 176.863 249 180z"
     id="path948" />
  <path
     style="fill:#083b5f; stroke:none;"
     d="M49 169L43 179L42 177L41 177C39.6283 191.553 56.6156 181.713 49 169z"
     id="path950" />
  <path
     style="fill:#1997d3; stroke:none;"
     d="M275.225 169.851C270.135 171.563 272.529 179.883 277.895 178.288C283.573 176.6 280.697 168.01 275.225 169.851z"
     id="path952" />
  <path
     style="fill:#116f9d; stroke:none;"
     d="M164 170L157 181C164.676 183.021 167.714 176.201 164 170M272 171L273 172L272 171z"
     id="path954" />
  <path
     style="fill:#1997d3; stroke:none;"
     d="M251 173L248 178L249 179L251 173z"
     id="path956" />
  <path
     style="fill:#053b82; stroke:none;"
     d="M136 177L132 183C135.094 181.97 136.782 180.34 136 177z"
     id="path958" />
  <path
     style="fill:#116f9d; stroke:none;"
     d="M251 177L252 178L251 177M250 178L251 179L250 178M156 179L157 180L156 179z"
     id="path960" />
  <path
     style="fill:#053b82; stroke:none;"
     d="M185 179L186 180L185 179M164 180L165 181L164 180M186 180L187 181L186 180M128 181L129 182L128 181z"
     id="path962" />
  <path
     style="fill:#083b5f; stroke:none;"
     d="M135 181L136 182L135 181z"
     id="path964" />
  <path
     style="fill:#053b82; stroke:none;"
     d="M163 181L164 182L163 181M189 181L190 182L189 181M130 182L131 183L130 182M105 183L106 184L105 183z"
     id="path966" />
  <path
     style="fill:#083b5f; stroke:none;"
     d="M44.4375 193.029C38.9143 196.851 47.3279 218.297 54.6821 213.802C61.2239 209.803 52.8961 187.174 44.4375 193.029M74.2276 192.786C67.0516 195.613 74.3699 215.464 81.7724 212.998C89.1245 210.548 82.2557 189.624 74.2276 192.786M113 210C112.8 207.287 112.7 204.62 111.896 202C111.385 200.336 110.745 198.606 109.945 197.059C108.102 193.493 102.617 191.221 100.618 196.148C97.3353 204.239 105.011 213.819 113 210z"
     id="path968" />
  <path
     style="fill:#053b82; stroke:none;"
     d="M135 211L140 206C143.535 193.115 123.117 189.1 130.513 205.981C131.641 208.555 132.59 209.685 135 211z"
     id="path970" />
  <path
     style="fill:#116f9d; stroke:none;"
     d="M129 194L130 195L129 194M159.317 195.043C153.65 198.62 159.696 213.495 166.681 208.968C172.162 205.416 166.126 190.746 159.317 195.043z"
     id="path972" />
  <path
     style="fill:#053b82; stroke:none;"
     d="M164 194L165 195L164 194z"
     id="path974" />
  <path
     style="fill:#116f9d; stroke:none;"
     d="M188.148 195.072C181.741 198.436 188.05 212.068 194.566 207.806C199.758 204.41 194.541 191.715 188.148 195.072M137 195L138 196L137 195M216.318 196.032C211.155 199.395 216.931 209.96 222.567 206.638C228.113 203.369 222.347 192.106 216.318 196.032z"
     id="path976" />
  <path
     style="fill:#1997d3; stroke:none;"
     d="M245.862 196.163C240.444 199.43 245.004 208.667 250.682 204.968C255.258 201.987 250.841 193.16 245.862 196.163z"
     id="path978" />
  <path
     style="fill:#116f9d; stroke:none;"
     d="M247 195L248 196L247 195z"
     id="path980" />
  <path
     style="fill:#083b5f; stroke:none;"
     d="M128 196L129 197L128 196z"
     id="path982" />
  <path
     style="fill:#116f9d; stroke:none;"
     d="M244 196L245 197L244 196z"
     id="path984" />
  <path
     style="fill:#1997d3; stroke:none;"
     d="M274.317 197.047C269.668 199.912 273.716 207.267 278.683 204.588C283.409 202.039 279.123 194.085 274.317 197.047z"
     id="path986" />
  <path
     style="fill:#116f9d; stroke:none;"
     d="M243 197L244 198L243 197z"
     id="path988" />
  <path
     style="fill:#053b82; stroke:none;"
     d="M110 198L111 199L110 198z"
     id="path990" />
  <path
     style="fill:#116f9d; stroke:none;"
     d="M138 198L139 199L138 198M139 200L140 201L139 200z"
     id="path992" />
  <path
     style="fill:#053b82; stroke:none;"
     d="M168 202L169 203L168 202z"
     id="path994" />
  <path
     style="fill:#116f9d; stroke:none;"
     d="M139 204L135 211C139.293 210.369 141.67 208.038 139 204z"
     id="path996" />
  <path
     style="fill:#1997d3; stroke:none;"
     d="M215 204L216 205L215 204z"
     id="path998" />
  <path
     style="fill:#116f9d; stroke:none;"
     d="M130 205L131 206L130 205z"
     id="path1000" />
  <path
     style="fill:#053b82; stroke:none;"
     d="M102 206L103 207L102 206M112.333 207.667L112.667 208.333L112.333 207.667z"
     id="path1002" />
  <path
     style="fill:#116f9d; stroke:none;"
     d="M113 207L114 208L113 207z"
     id="path1004" />
  <path
     style="fill:#053b82; stroke:none;"
     d="M103 209L104 210L103 209z"
     id="path1006" />
  <path
     style="fill:#116f9d; stroke:none;"
     d="M133 209L134 210L133 209z"
     id="path1008" />
  <path
     style="fill:#053b82; stroke:none;"
     d="M139 209L140 210L139 209z"
     id="path1010" />
  <path
     style="fill:#116f9d; stroke:none;"
     d="M112 210L113 211L112 210z"
     id="path1012" />
  <path
     style="fill:#053b82; stroke:none;"
     d="M84 211L85 212L84 211M110 211L111 212L110 211M81 213L82 214L81 213z"
     id="path1014" />
  <path
     style="fill:#083b5f; stroke:none;"
     d="M57.2276 219.762C49.0001 223.192 61.3433 243.323 68.7716 240.238C77.0616 236.796 64.3968 216.772 57.2276 219.762M91 238C92.4581 235.93 94.55 233.612 94.8804 230.998C96.3477 219.393 77.3066 216.512 82.2932 228C83.0571 229.76 84.2402 231.423 85.3472 232.981C87.0157 235.328 88.4801 236.712 91 238z"
     id="path1016" />
  <path
     style="fill:#116f9d; stroke:none;"
     d="M87 219L88 220L87 219z"
     id="path1018" />
  <path
     style="fill:#053b82; stroke:none;"
     d="M116 237L122 229C112.971 212.814 103.054 226.301 116 237z"
     id="path1020" />
  <path
     style="fill:#116f9d; stroke:none;"
     d="M139.147 220.851C131.392 223.349 139.577 239.676 146.852 236.932C154.354 234.102 145.738 218.729 139.147 220.851z"
     id="path1022" />
  <path
     style="fill:#053b82; stroke:none;"
     d="M90 221L91 222L90 221z"
     id="path1024" />
  <path
     style="fill:#116f9d; stroke:none;"
     d="M164.518 222.032C158.78 226.057 167.639 239.315 173.682 235.777C180.416 231.835 170.94 217.529 164.518 222.032M193.147 221.801C186.153 224.26 192.814 237.339 199.762 234.396C206.322 231.617 198.926 219.769 193.147 221.801z"
     id="path1026" />
  <path
     style="fill:#053b82; stroke:none;"
     d="M81 222L82 223L81 222z"
     id="path1028" />
  <path
     style="fill:#1997d3; stroke:none;"
     d="M219.437 223.043C214.096 226.578 221.253 236.911 226.397 232.968C231.085 229.373 224.799 219.494 219.437 223.043z"
     id="path1030" />
  <path
     style="fill:#116f9d; stroke:none;"
     d="M224 222L225 223L224 222z"
     id="path1032" />
  <path
     style="fill:#1997d3; stroke:none;"
     d="M247.228 223.047C241.608 226.29 247.532 235.126 252.681 231.953C257.576 228.937 252.359 220.086 247.228 223.047z"
     id="path1034" />
  <path
     style="fill:#116f9d; stroke:none;"
     d="M118 223L119 224L118 223M273 223L274 224L273 223z"
     id="path1036" />
  <path
     style="fill:#1997d3; stroke:none;"
     d="M274.317 223.747C269.488 226.108 274.074 233.557 278.718 230.928C283.882 228.006 279.375 221.273 274.317 223.747z"
     id="path1038" />
  <path
     style="fill:#116f9d; stroke:none;"
     d="M92 224L93 225L92 224M217 224L218 225L217 224M253 224L254 225L253 224M120 226L121 227L120 226z"
     id="path1040" />
  <path
     style="fill:#053b82; stroke:none;"
     d="M94 227L95 228L94 227z"
     id="path1042" />
  <path
     style="fill:#1997d3; stroke:none;"
     d="M201 227L202 228L201 227z"
     id="path1044" />
  <path
     style="fill:#116f9d; stroke:none;"
     d="M281 227L282 228L281 227z"
     id="path1046" />
  <path
     style="fill:#053b82; stroke:none;"
     d="M82 228L83 229L82 228z"
     id="path1048" />
  <path
     style="fill:#116f9d; stroke:none;"
     d="M217 228L218 229L217 228z"
     id="path1050" />
  <path
     style="fill:#053b82; stroke:none;"
     d="M95 229L96 230L95 229z"
     id="path1052" />
  <path
     style="fill:#116f9d; stroke:none;"
     d="M115 238C128.712 238.753 121.644 222.617 115 238z"
     id="path1054" />
  <path
     style="fill:#053b82; stroke:none;"
     d="M96 230L89 238L89 239C95.6359 239.888 99.8921 236.503 96 230z"
     id="path1056" />
  <path
     style="fill:#1997d3; stroke:none;"
     d="M202 230L203 231L202 230z"
     id="path1058" />
  <path
     style="fill:#116f9d; stroke:none;"
     d="M218 230L219 231L218 230z"
     id="path1060" />
  <path
     style="fill:#053b82; stroke:none;"
     d="M84 231L85 232L84 231z"
     id="path1062" />
  <path
     style="fill:#116f9d; stroke:none;"
     d="M246 231L247 232L246 231M274 231L275 232L274 231z"
     id="path1064" />
  <path
     style="fill:#083b5f; stroke:none;"
     d="M97 232L98 233L97 232z"
     id="path1066" />
  <path
     style="fill:#053b82; stroke:none;"
     d="M86 234L87 235L86 234M123 236L124 237L123 236M148 236L149 237L148 236z"
     id="path1068" />
  <path
     style="fill:#116f9d; stroke:none;"
     d="M88 237L89 238L88 237z"
     id="path1070" />
  <path
     style="fill:#053b82; stroke:none;"
     d="M146 237L147 238L146 237z"
     id="path1072" />
  <path
     style="fill:#083b5f; stroke:none;"
     d="M96 238L97 239L96 238z"
     id="path1074" />
  <path
     style="fill:#053b82; stroke:none;"
     d="M118.667 238.333L119.333 238.667L118.667 238.333z"
     id="path1076" />
  <path
     style="fill:#083b5f; stroke:none;"
     d="M91 239L92 240L91 239M94 239L95 240L94 239z"
     id="path1078" />
  <path
     style="fill:#053b82; stroke:none;"
     d="M78 247L77 249L78 247z"
     id="path1080" />
  <path
     style="fill:#083b5f; stroke:none;"
     d="M78 257L79 257C79.6905 253.266 81.2372 250.197 85 249C78.7999 244.216 75.4273 251.52 78 257z"
     id="path1082" />
  <path
     style="fill:#053b82; stroke:none;"
     d="M82 247L83 248L82 247M107.667 247.333L108.333 247.667L107.667 247.333z"
     id="path1084" />
  <path
     style="fill:#116f9d; stroke:none;"
     d="M109.044 247.876C98.6388 248.549 108.868 265.038 115.985 264.338C126.479 263.306 116.002 247.426 109.044 247.876z"
     id="path1086" />
  <path
     style="fill:#053b82; stroke:none;"
     d="M83.1744 249.461C73.5902 251.92 83.0705 266.572 89.9414 265.168C98.6897 263.38 89.2942 247.891 83.1744 249.461M105 248L106 249L105 248M112 248L113 249L112 248z"
     id="path1088" />
  <path
     style="fill:#116f9d; stroke:none;"
     d="M134.318 248.747C127.193 252.199 138.484 266.162 144.771 262.777C152.611 258.556 140.896 245.559 134.318 248.747M162.229 248.758C154.812 251.96 164.834 263.702 170.852 261.377C178.42 258.454 168.84 245.903 162.229 248.758M189 257L194 248C188.583 248.857 186.858 251.982 189 257z"
     id="path1090" />
  <path
     style="fill:#1997d3; stroke:none;"
     d="M219.106 248.956C212.029 250.779 217.613 261.206 223.853 259.663C230.351 258.056 224.846 247.477 219.106 248.956z"
     id="path1092" />
  <path
     style="fill:#116f9d; stroke:none;"
     d="M76 249L77 250L76 249z"
     id="path1094" />
  <path
     style="fill:#053b82; stroke:none;"
     d="M104.333 249.667L104.667 250.333L104.333 249.667M113 249L114 250L113 249z"
     id="path1096" />
  <path
     style="fill:#1997d3; stroke:none;"
     d="M194 249C184.337 265.315 209.797 260.262 194 249z"
     id="path1098" />
  <path
     style="fill:#116f9d; stroke:none;"
     d="M195 249L196 250L195 249M223 249L224 250L223 249z"
     id="path1100" />
  <path
     style="fill:#1997d3; stroke:none;"
     d="M245.742 250.032C241.015 253.728 247.602 262.713 252.257 258.242C256.37 254.292 250.308 246.463 245.742 250.032M274.318 250.047C269.831 252.825 273.846 260.664 278.686 257.777C283.31 255.019 279.189 247.032 274.318 250.047z"
     id="path1102" />
  <path
     style="fill:#116f9d; stroke:none;"
     d="M302 249L303 250L302 249z"
     id="path1104" />
  <path
     style="fill:#1997d3; stroke:none;"
     d="M303.09 249.801C297.859 250.449 298.945 258.38 303.961 258.248C309.331 258.107 308.617 249.116 303.09 249.801z"
     id="path1106" />
  <path
     style="fill:#116f9d; stroke:none;"
     d="M196 250L197 251L196 250M244 250L245 251L244 250M197 251L198 252L197 251M225 251L226 252L225 251M198 252L199 253L198 252M199 253L200 254L199 253M76 254L77 255L76 254M200 254L201 255L200 254M215 254L216 255L215 254M91 255L92 256L91 255M92 256L93 257L92 256z"
     id="path1108" />
  <path
     style="fill:#053b82; stroke:none;"
     d="M133 256L134 257L133 256z"
     id="path1110" />
  <path
     style="fill:#116f9d; stroke:none;"
     d="M216 256L217 257L216 256M272 256L273 257L272 256M253 257L254 258L253 257M300 257L301 258L300 257M190 258L191 259L190 258M200 258L201 259L200 258M305 258L306 259L305 258M84 263L85 264L84 263M85 264L86 265L85 264M92 264L93 265L92 264M87 265L88 266L87 265M131.603 273.029C125.164 278.075 139.718 291.746 145.396 286.254C151.267 280.575 137.269 268.588 131.603 273.029M167 287L171 279L172 279L174 281C163.788 266.633 151.492 278.029 167 287M189 273L190 274L189 273z"
     id="path1112" />
  <path
     style="fill:#1997d3; stroke:none;"
     d="M190.109 273.851C181.668 276.44 190.756 288.076 196.89 286.288C204.985 283.929 196.434 271.911 190.109 273.851M217.317 275.043C211.362 278.806 219.143 288.443 224.681 284.957C230.479 281.308 222.778 271.593 217.317 275.043M245.438 276.032C240.39 279.443 246.758 287.666 251.682 284.777C257.246 281.513 250.711 272.469 245.438 276.032z"
     id="path1114" />
  <path
     style="fill:#116f9d; stroke:none;"
     d="M186 276L187 277L186 276M224 276L225 277L224 276z"
     id="path1116" />
  <path
     style="fill:#1997d3; stroke:none;"
     d="M274.318 277.032C269.865 279.936 274.175 286.583 278.769 283.953C284.025 280.943 279.22 273.835 274.318 277.032M301.604 278.032C297.777 280.981 302.425 287.316 306.566 284.777C311.44 281.789 305.9 274.723 301.604 278.032z"
     id="path1118" />
  <path
     style="fill:#116f9d; stroke:none;"
     d="M199 278L200 279L199 278M226 278L227 279L226 278z"
     id="path1120" />
  <path
     style="fill:#1997d3; stroke:none;"
     d="M171 279L167 287C170.932 286.188 172.639 284.786 174 281L171 279z"
     id="path1122" />
  <path
     style="fill:#116f9d; stroke:none;"
     d="M200 280L201 281L200 280M281 281L282 282L281 281M173 283L174 284L173 283M280 283L281 284L280 283M172 285L173 286L172 285M302 285L303 286L302 285M170.667 286.333L171.333 286.667L170.667 286.333z"
     id="path1124" />
</svg>
